<?xml version="1.0" standalone="no"?>
<!DOCTYPE svg PUBLIC "-//W3C//DTD SVG 20010904//EN"
 "http://www.w3.org/TR/2001/REC-SVG-20010904/DTD/svg10.dtd">
<svg version="1.0" xmlns="http://www.w3.org/2000/svg"
 width="931.000000pt" height="931.000000pt" viewBox="0 0 931.000000 931.000000"
 preserveAspectRatio="xMidYMid meet">
<metadata>
Created by potrace 1.14, written by Peter Selinger 2001-2017
</metadata>
<g transform="translate(0.000000,931.000000) scale(0.100000,-0.100000)"
fill="#000000" stroke="none">
<path d="M4400 9300 c-107 -14 -146 -21 -235 -43 -49 -11 -92 -21 -95 -22 -18
-3 -183 -61 -220 -77 -152 -65 -389 -207 -491 -294 -62 -52 -244 -238 -285
-289 -21 -27 -42 -52 -45 -55 -24 -21 -142 -219 -194 -325 -55 -111 -118 -274
-131 -339 -2 -10 -8 -33 -13 -50 -8 -28 -14 -57 -27 -136 -2 -14 -6 -34 -9
-45 -8 -37 -17 -139 -20 -227 l-3 -88 37 -1 c367 -5 841 -2 842 6 0 6 2 33 3
60 25 522 400 946 918 1039 105 19 304 15 412 -9 337 -72 636 -315 775 -630 7
-16 17 -37 21 -46 29 -59 68 -252 71 -356 l2 -63 56 -1 c71 0 779 0 807 0 18
1 21 6 18 34 -1 17 -5 77 -8 132 -25 459 -235 916 -576 1255 -312 311 -663
485 -1140 565 -54 9 -408 13 -470 5z"/>
<path d="M3120 6312 c-145 -11 -309 -74 -427 -164 -177 -135 -290 -316 -337
-541 -21 -101 -14 -311 14 -406 80 -278 268 -493 515 -589 542 -210 1120 189
1139 787 9 260 -81 491 -258 667 -177 176 -411 265 -646 246z"/>
<path d="M6037 6314 c-1 -1 -33 -5 -72 -9 -38 -4 -77 -11 -87 -16 -10 -5 -18
-7 -18 -5 0 5 -67 -16 -110 -35 -73 -32 -100 -47 -155 -83 -200 -133 -334
-334 -380 -571 -22 -113 -11 -327 22 -415 3 -8 7 -20 8 -25 13 -56 87 -193
144 -265 46 -58 151 -159 174 -166 9 -3 17 -9 17 -14 0 -16 206 -109 290 -131
63 -16 116 -21 205 -22 126 0 131 1 235 28 274 71 511 295 605 570 51 151 56
366 11 518 -73 246 -233 437 -463 552 -109 54 -229 83 -381 89 -23 1 -43 1
-45 0z"/>
<path d="M2340 1803 l0 -1798 835 1 c459 0 838 4 843 8 4 4 7 813 8 1797 l0
1789 -843 0 -843 0 0 -1797z"/>
<path d="M5274 1805 c0 -1266 3 -1795 10 -1796 14 -1 1636 -1 1659 0 16 1 17
93 17 1796 l0 1795 -843 0 -843 0 0 -1795z"/>
</g>
</svg>
